<svg xmlns="http://www.w3.org/2000/svg" width="72" height="72"><defs><linearGradient id="a" x1="36" y1="6" x2="36" y2="66" gradientUnits="userSpaceOnUse"><stop offset="0" stop-color="#1967d2" stop-opacity="0"/><stop offset=".133" stop-color="#1967d2" stop-opacity=".02"/><stop offset=".271" stop-color="#1967d2" stop-opacity=".079"/><stop offset=".411" stop-color="#1967d2" stop-opacity=".178"/><stop offset=".553" stop-color="#1967d2" stop-opacity=".317"/><stop offset=".696" stop-color="#1967d2" stop-opacity=".495"/><stop offset=".841" stop-color="#1967d2" stop-opacity=".713"/><stop offset=".983" stop-color="#1967d2" stop-opacity=".967"/><stop offset="1" stop-color="#1967d2"/></linearGradient></defs><g style="isolation:isolate"><rect x="14" y="6" width="44" height="60" rx="4" fill="#4285f4"/><rect x="14" y="6" width="44" height="60" rx="4" opacity=".5" fill="url(#a)" style="mix-blend-mode:multiply"/><path fill="#fff" d="M18 12h36v48H18z"/><rect x="22" y="45" width="28" height="2" rx="1" fill="#bdc1c6"/><rect x="22" y="21" width="10" height="2" rx="1" fill="#bdc1c6"/><path d="M36 0a5 5 0 015 5v5H31V5a5 5 0 015-5z" fill="#9aa0a6"/><circle cx="36" cy="5" r="2" fill="#fff"/><path d="M26 9h20a4 4 0 014 4v2H22v-2a4 4 0 014-4z" fill="#9aa0a6"/><g fill="#185abc"><path d="M22 36.25h8v1.5h-8z"/><path d="M22 36.25h8v1.5h-8z"/><path d="M23.35 40.09l4-6.93 1.3.75-4 6.93z"/><path d="M27.35 40.84l-4-6.93 1.3-.75 4 6.93z"/></g><path fill="none" d="M22 33h8v8h-8z"/><g fill="#185abc"><path d="M32 36.25h8v1.5h-8z"/><path d="M32 36.25h8v1.5h-8z"/><path d="M33.35 40.09l4-6.93 1.3.75-4 6.93z"/><path d="M37.35 40.84l-4-6.93 1.3-.75 4 6.93z"/></g><path fill="none" d="M32 33h8v8h-8z"/><g fill="#185abc"><path d="M42 36.25h8v1.5h-8z"/><path d="M42 36.25h8v1.5h-8z"/><path d="M43.35 40.09l4-6.93 1.3.75-4 6.93z"/><path d="M47.35 40.84l-4-6.93 1.3-.75 4 6.93z"/></g><path fill="none" d="M42 33h8v8h-8z"/><rect x="22" y="27" width="19" height="2" rx="1" fill="#bdc1c6"/><path fill="none" d="M0 0h72v72H0z"/></g></svg>