<svg width="96" height="96" viewBox="0 0 96 96" fill="none" xmlns="http://www.w3.org/2000/svg"><path d="M48 92a57.61 57.61 0 0 0 33.27-44.45A85.21 85.21 0 0 0 82 38V14L48 4 14 14v24a85.21 85.21 0 0 0 .73 9.55A57.61 57.61 0 0 0 48 92z" fill="#4285F4"/><path d="M30 59.86c0-4.79 8.51-8.69 18-8.86 9.49.17 18 4.07 18 8.86v.45a23 23 0 1 0-36 0v-.45z" fill="#185ABC"/><path d="M66 59.86c0-4.79-8.51-8.69-18-8.86-9.49.17-18 4.07-18 8.86v.45a23 23 0 0 0 36 0v-.45zM48 47a9 9 0 1 0 0-18 9 9 0 0 0 0 18z" fill="#fff"/></svg>